<?xml version="1.0" encoding="UTF-8"?>
<svg id="Layer_1" data-name="Layer 1" xmlns="http://www.w3.org/2000/svg" viewBox="0 0 409.53 395.11">
  <defs>
    <style>
      .cls-1 {
        fill: #911d2e;
      }
    </style>
  </defs>
  <path class="cls-1" d="M23.71,279.24c13.38-58.09,26.7-115.76,40.01-173.43,7.4-32.08,14.8-64.16,22.15-96.25.99-4.34,2.9-7.86,7.44-9.14,4.67-1.31,8.31.53,11.6,3.91,5.11,5.25,10.29,10.47,15.83,15.26,3.8,3.28,5.05,6.64,3.22,11.35-.75,1.94-.86,4.13-1.36,6.73,6.72,0,13.02.11,19.31-.11,1.03-.04,2.48-1.36,2.94-2.43,1.91-4.48,5.08-6.96,9.96-6.86,4.5.09,7.19,2.68,9.05,6.68.58,1.24,2.49,2.54,3.85,2.61,6.15.28,12.33,0,18.49.18,2.63.07,3.59-.92,4.53-3.35,1.06-2.75,2.78-5.58,4.97-7.52,7.71-6.83,15.76-13.28,23.66-19.89,3.6-3.01,7.56-3.55,11.54-1.16,4.42,2.65,5.5,7,4.48,11.75-1.58,7.31-3.48,14.55-5.22,21.83-9.4,39.45-18.79,78.9-28.21,118.48h172.37c5.12,32.23,10.24,64.53,15.37,96.84,6.48,40.75,12.93,81.51,19.48,122.25,1.6,9.97-1.85,14.57-11.97,14.81-25.32.59-50.65.73-75.96,1.59-102.55,3.48-205.13.51-307.69,1.49-11.5.11-15.37-4.64-12.77-16.05,7.52-33.08,15.24-66.1,22.94-99.56M36.59,312.77c-4.75,20.48-9.49,40.96-14.39,62.07h6.78c89.98,0,179.95-.05,269.93.13,4.97,0,6.71-1.48,7.79-6.23,10.74-47.35,21.73-94.63,32.65-141.94,3.76-16.32,7.49-32.65,11.31-49.29-2.43,0-4.42-.01-6.41,0-41.65.29-83.31.58-124.96.89-9.32.07-18.66-.05-27.97.46-8.03.44-13.19-4.53-11.79-12.53.97-5.56,2.5-11.02,3.79-16.52,2.68-11.43,5.38-22.86,8.21-34.91-2.65,0-4.62,0-6.58,0-31.99,0-63.99.14-95.97-.14-5.31-.05-7.22,1.37-8.42,6.65-14.44,63.55-29.17,127.04-43.96,191.37M326.23,372.44c-.17,1.12-.34,2.25-.43,2.85h62.8c-8.52-53.36-16.89-105.75-25.25-158.14-2.11,4.01-3.09,8.08-4.04,12.16-10.95,47.44-21.89,94.88-33.08,143.13M160.49,56.57c-2.94,12.59-5.87,25.17-8.88,38.07h24.98c3.83-16.6,7.61-33.03,11.51-49.94h-13.79q-11.2,0-13.82,11.87M116.21,33.42c1.15-3.84,2.27-7.44-2.08-10.47-3.11-2.16-5.61-5.19-8.83-8.26-6.29,27.31-12.31,53.45-18.46,80.19,4.72,0,8.7.21,12.63-.13,1.14-.1,2.85-1.61,3.12-2.75,4.57-19.24,8.96-38.52,13.63-58.58M140.87,52.13c.55-2.34,1.1-4.68,1.7-7.22h-21.85c-3.82,16.57-7.6,33-11.43,49.64h21.87c3.25-14.09,6.42-27.85,9.72-42.42M212.49,23.59c-6.94,4.17-14.38,7.42-16.33,16.92-3.7,18.03-8.18,35.9-12.37,54.02h12.64c1.33-5.5,2.6-10.65,3.81-15.83,4.23-18.13,8.43-36.26,12.26-55.1Z"/>
  <path class="cls-1" d="M108.86,169.1c-6.29-10.73-5.61-20.51,1.77-28.74,6.19-6.91,16.85-9.06,25.6-5.17,8.58,3.81,13.95,12.65,13.38,22.01-.54,8.95-6.64,16.94-15.12,19.81-9.4,3.19-18.93.34-25.63-7.91Z"/>
  <path class="cls-1" d="M213.89,216.5c8.3,0,16.12.1,23.94-.04,3.9-.07,5.57.95,4.42,5.26-1.97,7.38-3.68,14.83-5.17,22.32-.58,2.9-1.9,3.88-4.67,3.86-9.48-.07-18.97-.02-28.45-.03-3.46,0-4.77-1.45-3.83-5.06,1.68-6.42,3.48-12.86,4.44-19.41.83-5.6,3.28-7.94,9.32-6.9Z"/>
  <path class="cls-1" d="M120.39,216.5c4.4-.39,6.05.97,4.98,5.18-1.84,7.24-3.53,14.52-5.01,21.84-.64,3.17-2.04,4.46-5.33,4.4-9.15-.15-18.3-.08-27.45-.04-3.92.02-5.39-1.29-4.22-5.51,1.95-7.03,3.56-14.17,4.95-21.34.67-3.45,2.14-4.69,5.66-4.6,8.65.21,17.3.07,26.42.07Z"/>
  <path class="cls-1" d="M178.68,243.28c-.38,3.74-2.32,4.7-5.5,4.65-8.98-.14-17.96-.17-26.94,0-4.38.08-5.6-1.58-4.54-5.75,1.84-7.24,3.48-14.52,5.05-21.82.65-3.02,2.27-3.96,5.26-3.91,8.98.15,17.96.03,26.94.06,5.08.02,5.71.83,4.53,6-1.55,6.8-3.16,13.58-4.81,20.77Z"/>
  <path class="cls-1" d="M265.74,216.93c10.83-.31,21.3-.38,31.78-.44,3.02-.02,4.18,1.22,3.42,4.37-1.9,7.91-3.45,15.9-5.53,23.76-.36,1.35-2.65,3.07-4.09,3.11-9.64.27-19.29.15-28.94.13-2.44,0-4.52-.72-3.78-3.76,2.19-8.99,4.52-17.95,7.14-27.17Z"/>
  <path class="cls-1" d="M76.85,271.56c.45-6.06,3.47-7.68,8.99-7.34,8.12.5,16.29.27,24.44.07,3.87-.1,5.21,1.3,4.33,5.02-1.8,7.59-3.63,15.17-5.29,22.79-.56,2.58-1.83,3.5-4.45,3.47-9.64-.12-19.29-.07-28.93-.04-3.35.01-4.35-1.26-3.47-4.64,1.64-6.26,2.9-12.61,4.4-19.33Z"/>
  <path class="cls-1" d="M287.29,280.94q-3.13,14.58-17.88,14.58c-5.82,0-11.65-.11-17.47.04-3.51.09-4.96-1.14-4.1-4.74,1.81-7.59,3.56-15.2,5.26-22.81.61-2.72,2.05-3.75,4.9-3.71,9.48.15,18.97.1,28.45.03,3.33-.02,4.55,1.14,3.61,4.56-1.06,3.84-1.77,7.77-2.77,12.06Z"/>
  <path class="cls-1" d="M230.88,264.97c-.09,3.66-.35,7.07-.99,10.41-1.01,5.21-2.4,10.35-3.41,15.57-.62,3.21-1.85,4.79-5.55,4.67-9.14-.29-18.3-.14-27.45-.07-3.55.03-5.27-.76-4.12-4.96,2.01-7.36,3.34-14.91,5.35-22.27.43-1.56,2.56-3.76,3.94-3.79,10.63-.21,21.26.04,32.24.44Z"/>
  <path class="cls-1" d="M74.73,343.36c-3.66,0-6.83-.06-9.99.01-3.15.07-4.11-1.23-3.36-4.33,1.89-7.75,3.41-15.59,5.53-23.27.39-1.43,2.83-3.21,4.37-3.26,9.48-.3,18.98-.04,28.47-.21,3.94-.07,4.53,1.8,3.79,5-1.73,7.45-3.49,14.89-5.12,22.35-.58,2.66-1.74,3.89-4.72,3.78-6.15-.24-12.32-.07-18.98-.07Z"/>
  <path class="cls-1" d="M155.71,264.35c4.83,0,9.16.09,13.49-.03,3.46-.1,4.43,1.4,3.66,4.64-1.87,7.93-3.52,15.91-5.55,23.79-.29,1.13-2.19,2.61-3.38,2.63-9.99.21-19.98.09-29.98.15-3.39.02-3.89-1.79-3.25-4.55,1.78-7.78,3.36-15.61,5.49-23.29.39-1.42,2.89-3.05,4.54-3.2,4.79-.43,9.65-.15,14.98-.15Z"/>
  <path class="cls-1" d="M124.91,343.36c-4.91.59-6.15-1.31-5.1-5.51,1.81-7.25,3.44-14.54,5.07-21.83.6-2.69,1.97-3.78,4.86-3.73,9.31.17,18.64.2,27.95,0,4.08-.09,4.91,1.58,4.05,5.16-1.78,7.43-3.49,14.87-5.08,22.34-.59,2.78-1.95,3.69-4.81,3.63-8.81-.19-17.63-.07-26.93-.07Z"/>
  <path class="cls-1" d="M220.41,313.62c-1.73,9.43-3.62,18.51-5.74,27.53-.21.89-1.77,2.08-2.72,2.1-10.3.15-20.61.21-30.91-.07-1.03-.03-3.04-2.59-2.83-3.64,1.59-8.13,3.54-16.2,5.59-24.23.29-1.13,1.78-2.79,2.73-2.8,10.96-.12,21.92.03,32.87.14.26,0,.51.39,1,.96Z"/>
  <path class="cls-1" d="M276.98,327.79c-1,4.28-1.63,8.25-2.94,11.99-.48,1.36-2.55,3.04-3.94,3.08-9.63.27-19.28.06-28.92.19-3.35.05-4.66-1.2-3.91-4.46,1.79-7.76,3.46-15.55,5.55-23.23.38-1.38,2.53-3.19,3.91-3.23,9.8-.28,19.61-.12,29.42-.17,3.04-.01,4.28,1.05,3.41,4.26-.99,3.68-1.67,7.44-2.58,11.58M271.37,333.63c1.34-5.75,2.68-11.5,4.05-17.35h-28.87c-1.72,7.63-3.38,15-5.09,22.54h28.59c.41-1.51.8-2.94,1.32-5.19Z"/>
</svg>