<?xml version="1.0" encoding="UTF-8"?>
<svg id="Layer_1" data-name="Layer 1" xmlns="http://www.w3.org/2000/svg" xmlns:xlink="http://www.w3.org/1999/xlink" viewBox="0 0 350 75">
  <defs>
    <style>
      .cls-1 {
        font-family: DINCondensed-Bold, 'DIN Condensed';
        font-size: 51.1px;
        font-weight: 700;
      }

      .cls-1, .cls-2 {
        fill: #fff;
      }

      .cls-3 {
        fill: url(#linear-gradient);
      }
    </style>
    <linearGradient id="linear-gradient" x1="175" y1="16.61" x2="175" y2="58.5" gradientUnits="userSpaceOnUse">
      <stop offset="0" stop-color="#0071bc"/>
      <stop offset="1" stop-color="#29abe2"/>
    </linearGradient>
  </defs>
  <rect class="cls-3" x="3" y="16.61" width="344" height="41.89"/>
  <g>
    <path class="cls-2" d="M163.07,53.05c-3.13-3.74-5.1-7.95-5.64-12.77-.77-6.87.97-13.05,5.44-18.36,3.85-4.57,8.84-7.29,14.75-8.1,7.04-.97,13.39.84,18.85,5.41,4.26,3.57,6.81,8.16,7.72,13.65,1.22,7.33-.55,13.9-5.13,19.7-3.24,4.1-7.51,6.76-12.55,8.07-7.65,1.99-14.45.06-20.56-4.76-1.05-.83-1.99-1.78-2.88-2.84M165.41,24.09c-.13.15-.27.29-.39.45-4.38,5.98-5.58,12.59-3.31,19.61,3.29,10.17,14.07,15.88,24.41,13.18,3.87-1.01,7.07-3.11,9.71-6.08,3.59-4.04,5.47-8.75,5.39-14.2-.08-5.74-1.95-10.7-6.21-14.68-5.07-4.73-11.01-6.49-17.79-5.19-4.68.9-8.62,3.21-11.82,6.9Z"/>
    <path class="cls-2" d="M174.24,54.12c-3-1.88-5-4.54-6.46-7.66-1.21-2.58-1.82-5.34-2.4-8.11-.43-2.04-1.09-3.97-2.37-5.65-.05-.06-.06-.15-.09-.22.2-.21.39-.11.56-.04,1.39.57,2.49,1.45,3.07,2.89.69,1.69,1.11,3.46,1.46,5.25.44,2.27,1.13,4.45,2.33,6.45-.65-1.41-1.13-2.88-1.41-4.4-.97-5.29-.14-10.24,3.13-14.58,2.1-2.79,5.06-4.12,8.59-4.28,3.37-.15,6.26,1,8.91,2.96.75.55,1.26,1.34,1.91,1.99.3.3.62.54,1.04.64,2.31.58,3.14,2.3,3.48,4.55-1.19.17-2.21-.12-3.11-.85-.79-.64-1.26-1.5-1.34-2.48-.07-.87-.48-1.51-1.05-2.04-4.17-3.87-9.65-5.11-14.62-2.32-3.14,1.76-4.84,4.58-5.6,8.21.62-.8,1.11-1.49,1.52-2.24,1.06-1.95,2.66-2.13,4.62-1.82.36.06.37.28.19.52-1.03,1.45-2.21,2.69-4.17,2.7-.41,0-.57.25-.77.51-1.5,1.97-2.01,4.22-1.8,6.63.28,3.24,1.49,6.15,3.35,8.8.08.11.12.29.33.29-2.11-5.3-1.93-10.16,2.99-13.89,2.33-1.76,5.05-2.2,7.89-1.55-5.63,1.22-8.8,4.8-9.63,10.37-.5,3.35.96,6.68,3.66,8.82-.63-1.22-1.14-2.35-1.39-3.6-.57-2.9.76-6.01,3.22-7.4,2.63-1.48,5.86-1.07,8.11.99.99.9,1.7,1.96,2.13,3.24-.33.13-.39-.12-.5-.25-.69-.81-1.49-1.48-2.41-2.02-3.49-2.04-7.59-.19-8.39,3.77-.74,3.68,1.21,6.65,4.91,7.38.72.14,1.47.23,2.22.1.18-.03.39-.11.54.09-2.05,1.67-8.57.77-12.65-1.75Z"/>
    <path class="cls-2" d="M172.62,26.26c-.97.49-1.11.4-1.13-.65-.03-2.3,1.57-4.2,3.83-4.55.59-.09.55.28.51.64-.17,1.66-.95,2.98-2.29,3.96-.28.21-.58.38-.92.6Z"/>
    <path class="cls-2" d="M179.73,22.58c-.89.46-1.8.67-2.75.74-.53.04-.71-.19-.58-.71.73-2.93,3.12-3.4,5.34-3.01.39.07.33.33.21.6-.48,1.01-1.14,1.87-2.22,2.38Z"/>
    <path class="cls-2" d="M170.09,25.05c1.19,2.29,1.02,3.96-.55,5.78-.17.19-.32.42-.65.48-.84-.87-1.1-1.94-.93-3.11.18-1.21.81-2.2,1.66-3.06.12-.12.25-.27.48-.09Z"/>
    <path class="cls-2" d="M183.85,23.33c-.85.03-1.64.03-2.39-.29-.36-.16-.56-.35-.26-.74,1.62-2.15,3.79-2.34,5.75-.97.08.06.14.15.28.31-.99.86-2.01,1.55-3.39,1.7Z"/>
    <path class="cls-2" d="M191.4,23.66c.37.38.37.62-.11.88-1.92,1.04-3.6.85-4.98-.55-.34-.35-.32-.53.09-.8,1.72-1.11,3.44-.98,5,.46Z"/>
    <path class="cls-2" d="M192.37,25.79c1.38.28,2.09,1.27,2.73,2.34.22.37-.02.51-.3.63-.99.42-1.97.19-2.84-.26-.88-.45-1.33-1.38-2.05-2.12.82-.54,1.59-.66,2.47-.59Z"/>
    <path class="cls-2" d="M178.77,26.69c-.57-.98-.51-1.11.59-1.35,1.77-.39,3.32.6,3.73,2.34.1.41-.04.55-.41.63-1.55.32-2.93-.23-3.9-1.62Z"/>
    <path class="cls-2" d="M188.36,31.02c-.55-1.01-.49-2.01-.27-3.04.06-.28.16-.43.49-.3,1.67.65,2.66,2.47,2.28,4.25-.16.75-.33.83-1.02.49-.62-.32-1.13-.74-1.49-1.4Z"/>
    <path class="cls-2" d="M187.11,27.89c.11.59.33,1.27-.07,1.61-.4.34-.99-.09-1.46-.28-1.48-.6-1.95-1.91-2.22-3.33-.08-.41.24-.39.51-.39,1.48,0,2.73.91,3.25,2.39Z"/>
    <path class="cls-2" d="M194.97,41.15c-.26.74-.65,1.35-1.21,1.83-.19.16-.37.31-.58-.02-.94-1.44-.85-3.26.24-4.66.43-.55.62-.54,1.04.01.64.84.81,1.77.51,2.84Z"/>
    <path class="cls-2" d="M175.69,27.03c1.31-.59,2.78.45,3.32,1.19.16.22.12.37-.1.54-1.34,1.02-3.17.91-4.36-.28-.33-.33-.38-.61.06-.89.33-.21.67-.41,1.09-.56Z"/>
    <path class="cls-2" d="M196.86,38.43c-.27.72-.37.76-.93.4-1.34-.85-1.84-2.06-1.57-3.65.08-.48.3-.57.72-.46,1.03.26,1.76,1.15,1.85,2.36.04.43.06.87-.08,1.36Z"/>
    <path class="cls-2" d="M191.39,35.99c-.31-.88-.2-1.68.14-2.47.17-.4.4-.52.82-.33,1.45.69,1.77,3.14.53,4.16-.22.18-.38.14-.57-.03-.39-.36-.71-.77-.92-1.33Z"/>
  </g>
  <text class="cls-1" transform="translate(20.13 56.74)"><tspan x="0" y="0">AOZORA</tspan></text>
  <text class="cls-1" transform="translate(216.8 57.01)"><tspan x="0" y="0">STUDIO</tspan></text>
</svg>