<?xml version="1.0" encoding="UTF-8"?>
<svg id="Layer_1" data-name="Layer 1" xmlns="http://www.w3.org/2000/svg" xmlns:xlink="http://www.w3.org/1999/xlink" viewBox="0 0 350 142">
  <defs>
    <style>
      .cls-1 {
        fill: url(#linear-gradient-5);
      }

      .cls-2 {
        fill: url(#linear-gradient-6);
      }

      .cls-3 {
        fill: url(#linear-gradient-4);
      }

      .cls-4 {
        fill: url(#linear-gradient-3);
      }

      .cls-5 {
        fill: url(#linear-gradient-2);
      }

      .cls-6 {
        fill: url(#linear-gradient);
      }

      .cls-7 {
        fill: #c69c6d;
      }
    </style>
    <linearGradient id="linear-gradient" x1="25.23" y1="47.55" x2="45.83" y2="47.55" gradientUnits="userSpaceOnUse">
      <stop offset="0" stop-color="#0071bc"/>
      <stop offset="1" stop-color="#29abe2"/>
    </linearGradient>
    <linearGradient id="linear-gradient-2" x1="48.08" x2="65.55" xlink:href="#linear-gradient"/>
    <linearGradient id="linear-gradient-3" x1="68.47" x2="83.95" xlink:href="#linear-gradient"/>
    <linearGradient id="linear-gradient-4" x1="86.86" x2="104.34" xlink:href="#linear-gradient"/>
    <linearGradient id="linear-gradient-5" x1="108.94" x2="127.64" xlink:href="#linear-gradient"/>
    <linearGradient id="linear-gradient-6" x1="128.36" x2="148.95" xlink:href="#linear-gradient"/>
  </defs>
  <g>
    <path class="cls-7" d="M148.07,106.05c-3.13-3.74-5.1-7.95-5.64-12.77-.77-6.87.97-13.05,5.44-18.36,3.85-4.57,8.84-7.29,14.75-8.1,7.04-.97,13.39.84,18.85,5.41,4.26,3.57,6.81,8.16,7.72,13.65,1.22,7.33-.55,13.9-5.13,19.7-3.24,4.1-7.51,6.76-12.55,8.07-7.65,1.99-14.45.06-20.56-4.76-1.05-.83-1.99-1.78-2.88-2.84M150.41,77.09c-.13.15-.27.29-.39.45-4.38,5.98-5.58,12.59-3.31,19.61,3.29,10.17,14.07,15.88,24.41,13.18,3.87-1.01,7.07-3.11,9.71-6.08,3.59-4.04,5.47-8.75,5.39-14.2-.08-5.74-1.95-10.7-6.21-14.68-5.07-4.73-11.01-6.49-17.79-5.19-4.68.9-8.62,3.21-11.82,6.9Z"/>
    <path class="cls-7" d="M159.24,107.12c-3-1.88-5-4.54-6.46-7.66-1.21-2.58-1.82-5.34-2.4-8.11-.43-2.04-1.09-3.97-2.37-5.65-.05-.06-.06-.15-.09-.22.2-.21.39-.11.56-.04,1.39.57,2.49,1.45,3.07,2.89.69,1.69,1.11,3.46,1.46,5.25.44,2.27,1.13,4.45,2.33,6.45-.65-1.41-1.13-2.88-1.41-4.4-.97-5.29-.14-10.24,3.13-14.58,2.1-2.79,5.06-4.12,8.59-4.28,3.37-.15,6.26,1,8.91,2.96.75.55,1.26,1.34,1.91,1.99.3.3.62.54,1.04.64,2.31.58,3.14,2.3,3.48,4.55-1.19.17-2.21-.12-3.11-.85-.79-.64-1.26-1.5-1.34-2.48-.07-.87-.48-1.51-1.05-2.04-4.17-3.87-9.65-5.11-14.62-2.32-3.14,1.76-4.84,4.58-5.6,8.21.62-.8,1.11-1.49,1.52-2.24,1.06-1.95,2.66-2.13,4.62-1.82.36.06.37.28.19.52-1.03,1.45-2.21,2.69-4.17,2.7-.41,0-.57.25-.77.51-1.5,1.97-2.01,4.22-1.8,6.63.28,3.24,1.49,6.15,3.35,8.8.08.11.12.29.33.29-2.11-5.3-1.93-10.16,2.99-13.89,2.33-1.76,5.05-2.2,7.89-1.55-5.63,1.22-8.8,4.8-9.63,10.37-.5,3.35.96,6.68,3.66,8.82-.63-1.22-1.14-2.35-1.39-3.6-.57-2.9.76-6.01,3.22-7.4,2.63-1.48,5.86-1.07,8.11.99.99.9,1.7,1.96,2.13,3.24-.33.13-.39-.12-.5-.25-.69-.81-1.49-1.48-2.41-2.02-3.49-2.04-7.59-.19-8.39,3.77-.74,3.68,1.21,6.65,4.91,7.38.72.14,1.47.23,2.22.1.18-.03.39-.11.54.09-2.05,1.67-8.57.77-12.65-1.75Z"/>
    <path class="cls-7" d="M157.62,79.26c-.97.49-1.11.4-1.13-.65-.03-2.3,1.57-4.2,3.83-4.55.59-.09.55.28.51.64-.17,1.66-.95,2.98-2.29,3.96-.28.21-.58.38-.92.6Z"/>
    <path class="cls-7" d="M164.73,75.58c-.89.46-1.8.67-2.75.74-.53.04-.71-.19-.58-.71.73-2.93,3.12-3.4,5.34-3.01.39.07.33.33.21.6-.48,1.01-1.14,1.87-2.22,2.38Z"/>
    <path class="cls-7" d="M155.09,78.05c1.19,2.29,1.02,3.96-.55,5.78-.17.19-.32.42-.65.48-.84-.87-1.1-1.94-.93-3.11.18-1.21.81-2.2,1.66-3.06.12-.12.25-.27.48-.09Z"/>
    <path class="cls-7" d="M168.85,76.33c-.85.03-1.64.03-2.39-.29-.36-.16-.56-.35-.26-.74,1.62-2.15,3.79-2.34,5.75-.97.08.06.14.15.28.31-.99.86-2.01,1.55-3.39,1.7Z"/>
    <path class="cls-7" d="M176.4,76.66c.37.38.37.62-.11.88-1.92,1.04-3.6.85-4.98-.55-.34-.35-.32-.53.09-.8,1.72-1.11,3.44-.98,5,.46Z"/>
    <path class="cls-7" d="M177.37,78.79c1.38.28,2.09,1.27,2.73,2.34.22.37-.02.51-.3.63-.99.42-1.97.19-2.84-.26-.88-.45-1.33-1.38-2.05-2.12.82-.54,1.59-.66,2.47-.59Z"/>
    <path class="cls-7" d="M163.77,79.69c-.57-.98-.51-1.11.59-1.35,1.77-.39,3.32.6,3.73,2.34.1.41-.04.55-.41.63-1.55.32-2.93-.23-3.9-1.62Z"/>
    <path class="cls-7" d="M173.36,84.02c-.55-1.01-.49-2.01-.27-3.04.06-.28.16-.43.49-.3,1.67.65,2.66,2.47,2.28,4.25-.16.75-.33.83-1.02.49-.62-.32-1.13-.74-1.49-1.4Z"/>
    <path class="cls-7" d="M172.11,80.89c.11.59.33,1.27-.07,1.61-.4.34-.99-.09-1.46-.28-1.48-.6-1.95-1.91-2.22-3.33-.08-.41.24-.39.51-.39,1.48,0,2.73.91,3.25,2.39Z"/>
    <path class="cls-7" d="M179.97,94.15c-.26.74-.65,1.35-1.21,1.83-.19.16-.37.31-.58-.02-.94-1.44-.85-3.26.24-4.66.43-.55.62-.54,1.04.01.64.84.81,1.77.51,2.84Z"/>
    <path class="cls-7" d="M160.69,80.03c1.31-.59,2.78.45,3.32,1.19.16.22.12.37-.1.54-1.34,1.02-3.17.91-4.36-.28-.33-.33-.38-.61.06-.89.33-.21.67-.41,1.09-.56Z"/>
    <path class="cls-7" d="M181.86,91.43c-.27.72-.37.76-.93.4-1.34-.85-1.84-2.06-1.57-3.65.08-.48.3-.57.72-.46,1.03.26,1.76,1.15,1.85,2.36.04.43.06.87-.08,1.36Z"/>
    <path class="cls-7" d="M176.39,88.99c-.31-.88-.2-1.68.14-2.47.17-.4.4-.52.82-.33,1.45.69,1.77,3.14.53,4.16-.22.18-.38.14-.57-.03-.39-.36-.71-.77-.92-1.33Z"/>
  </g>
  <g>
    <path class="cls-6" d="M25.23,65.74l8.13-36.38h4.34l8.12,36.38h-5.21l-1.53-7.82h-7.1l-1.53,7.82h-5.21ZM38.11,53.01l-2.56-13.18h-.1l-2.56,13.18h5.21Z"/>
    <path class="cls-5" d="M48.08,37.94c0-1.46.26-2.76.77-3.88.51-1.12,1.19-2.06,2.04-2.81.82-.72,1.75-1.26,2.79-1.64,1.04-.37,2.09-.56,3.14-.56s2.1.19,3.14.56c1.04.38,1.98.92,2.84,1.64.82.75,1.48,1.69,1.99,2.81.51,1.12.77,2.42.77,3.88v19.21c0,1.53-.26,2.84-.77,3.93-.51,1.09-1.18,1.99-1.99,2.71-.85.75-1.8,1.31-2.84,1.69-1.04.38-2.09.56-3.14.56s-2.1-.19-3.14-.56c-1.04-.37-1.97-.94-2.79-1.69-.85-.72-1.53-1.62-2.04-2.71-.51-1.09-.77-2.4-.77-3.93v-19.21ZM53.29,57.15c0,1.26.35,2.19,1.05,2.79.7.6,1.52.89,2.48.89s1.78-.3,2.48-.89c.7-.6,1.05-1.52,1.05-2.79v-19.21c0-1.26-.35-2.19-1.05-2.78-.7-.6-1.53-.89-2.48-.89s-1.78.3-2.48.89c-.7.6-1.05,1.52-1.05,2.78v19.21Z"/>
    <path class="cls-4" d="M68.47,65.74v-4.6l9.81-26.88h-9.3v-4.91h14.97v4.14l-10.02,27.34h10.02v4.91h-15.48Z"/>
    <path class="cls-3" d="M86.86,37.94c0-1.46.26-2.76.77-3.88.51-1.12,1.19-2.06,2.04-2.81.82-.72,1.75-1.26,2.79-1.64,1.04-.37,2.09-.56,3.14-.56s2.1.19,3.14.56c1.04.38,1.98.92,2.84,1.64.82.75,1.48,1.69,1.99,2.81.51,1.12.77,2.42.77,3.88v19.21c0,1.53-.26,2.84-.77,3.93-.51,1.09-1.18,1.99-1.99,2.71-.85.75-1.8,1.31-2.84,1.69-1.04.38-2.09.56-3.14.56s-2.1-.19-3.14-.56c-1.04-.37-1.97-.94-2.79-1.69-.85-.72-1.53-1.62-2.04-2.71-.51-1.09-.77-2.4-.77-3.93v-19.21ZM92.07,57.15c0,1.26.35,2.19,1.05,2.79.7.6,1.52.89,2.48.89s1.78-.3,2.48-.89c.7-.6,1.05-1.52,1.05-2.79v-19.21c0-1.26-.35-2.19-1.05-2.78-.7-.6-1.53-.89-2.48-.89s-1.78.3-2.48.89c-.7.6-1.05,1.52-1.05,2.78v19.21Z"/>
    <path class="cls-1" d="M108.94,65.74V29.35h8.38c6.13,0,9.2,3.56,9.2,10.68,0,2.15-.33,3.97-1,5.47-.66,1.5-1.83,2.71-3.5,3.63l5.62,16.61h-5.52l-4.85-15.54h-3.12v15.54h-5.21ZM114.15,34.26v11.34h2.96c.92,0,1.65-.13,2.2-.38.54-.26.97-.62,1.28-1.1.27-.48.46-1.06.56-1.76.1-.7.15-1.51.15-2.43s-.05-1.73-.15-2.43c-.1-.7-.31-1.3-.61-1.81-.65-.95-1.87-1.43-3.68-1.43h-2.71Z"/>
    <path class="cls-2" d="M128.36,65.74l8.12-36.38h4.34l8.12,36.38h-5.21l-1.53-7.82h-7.1l-1.53,7.82h-5.21ZM141.23,53.01l-2.55-13.18h-.1l-2.55,13.18h5.21Z"/>
  </g>
  <g>
    <path class="cls-7" d="M44.12,85.1h-5.21v-1.18c0-1.19-.28-2.22-.84-3.09-.56-.87-1.51-1.3-2.84-1.3-.72,0-1.29.14-1.74.41-.44.27-.8.61-1.07,1.02-.27.44-.46.95-.56,1.51-.1.56-.15,1.15-.15,1.76,0,.72.03,1.31.08,1.79.05.48.18.9.38,1.28.2.38.5.7.89.97.39.27.93.54,1.61.82l3.99,1.58c1.16.44,2.1.96,2.81,1.56.72.6,1.28,1.29,1.69,2.07.37.82.63,1.75.77,2.79.14,1.04.2,2.22.2,3.55,0,1.53-.15,2.96-.46,4.27-.31,1.31-.8,2.43-1.48,3.35-.72.95-1.65,1.7-2.81,2.25-1.16.54-2.57.82-4.24.82-1.26,0-2.44-.22-3.53-.66s-2.03-1.06-2.81-1.84c-.78-.78-1.41-1.69-1.87-2.73-.46-1.04-.69-2.17-.69-3.4v-1.94h5.21v1.63c0,.96.28,1.81.84,2.58.56.77,1.51,1.15,2.84,1.15.89,0,1.58-.13,2.07-.38.49-.26.88-.62,1.15-1.1.27-.48.43-1.05.49-1.71.05-.66.08-1.41.08-2.22,0-.95-.03-1.74-.1-2.35-.07-.61-.2-1.11-.41-1.48-.24-.37-.55-.68-.95-.92-.39-.24-.91-.49-1.56-.77l-3.73-1.53c-2.25-.92-3.76-2.14-4.52-3.65-.77-1.52-1.15-3.42-1.15-5.7,0-1.36.19-2.66.56-3.88.37-1.23.94-2.28,1.69-3.17.72-.89,1.63-1.59,2.73-2.12,1.11-.53,2.43-.79,3.96-.79,1.29,0,2.48.24,3.55.72,1.07.48,2,1.11,2.79,1.89,1.57,1.64,2.35,3.51,2.35,5.62v2.56Z"/>
    <path class="cls-7" d="M51.43,111.01v-31.48h-6.03v-4.91h17.27v4.91h-6.03v31.48h-5.21Z"/>
    <path class="cls-7" d="M81.83,74.62v28.21c0,1.19-.21,2.29-.64,3.3-.43,1-1.03,1.9-1.81,2.68s-1.69,1.4-2.71,1.84-2.11.66-3.27.66-2.24-.22-3.25-.66c-1.01-.44-1.9-1.06-2.68-1.84-.78-.78-1.4-1.68-1.84-2.68-.44-1-.66-2.1-.66-3.3v-28.21h5.21v27.7c0,1.29.31,2.25.92,2.86.61.61,1.38.92,2.3.92s1.69-.31,2.3-.92c.61-.61.92-1.57.92-2.86v-27.7h5.21Z"/>
    <path class="cls-7" d="M86.74,111.01v-36.38h7.72c3,0,5.27.82,6.82,2.45,1.55,1.64,2.32,3.95,2.32,6.95v17.02c0,3.41-.83,5.92-2.48,7.54-1.65,1.62-4.03,2.43-7.13,2.43h-7.26ZM91.95,79.53v26.57h2.4c1.46,0,2.5-.37,3.12-1.1.61-.73.92-1.88.92-3.45v-17.53c0-1.43-.29-2.54-.87-3.32-.58-.78-1.64-1.17-3.17-1.17h-2.4Z"/>
    <path class="cls-7" d="M108.66,111.01v-36.38h5.21v36.38h-5.21Z"/>
    <path class="cls-7" d="M118.62,83.21c0-1.46.26-2.76.77-3.88.51-1.12,1.19-2.06,2.04-2.81.82-.71,1.75-1.26,2.79-1.63,1.04-.38,2.09-.56,3.14-.56s2.1.19,3.14.56,1.98.92,2.84,1.63c.82.75,1.48,1.69,1.99,2.81.51,1.12.77,2.42.77,3.88v19.21c0,1.53-.26,2.84-.77,3.93-.51,1.09-1.17,1.99-1.99,2.71-.85.75-1.8,1.31-2.84,1.69-1.04.38-2.09.56-3.14.56s-2.1-.19-3.14-.56c-1.04-.37-1.97-.94-2.79-1.69-.85-.72-1.53-1.62-2.04-2.71-.51-1.09-.77-2.4-.77-3.93v-19.21ZM123.84,102.42c0,1.26.35,2.19,1.05,2.79.7.6,1.52.89,2.48.89s1.78-.3,2.48-.89c.7-.6,1.05-1.52,1.05-2.79v-19.21c0-1.26-.35-2.19-1.05-2.78-.7-.6-1.53-.89-2.48-.89s-1.78.3-2.48.89c-.7.6-1.05,1.52-1.05,2.78v19.21Z"/>
  </g>
</svg>